<?xml version="1.0" standalone="no"?>
<!DOCTYPE svg PUBLIC "-//W3C//DTD SVG 20010904//EN"
 "http://www.w3.org/TR/2001/REC-SVG-20010904/DTD/svg10.dtd">
<svg version="1.0" xmlns="http://www.w3.org/2000/svg"
 width="486.000000pt" height="486.000000pt" viewBox="0 0 486.000000 486.000000"
 preserveAspectRatio="xMidYMid meet">
<metadata>
Created by potrace 1.14, written by Peter Selinger 2001-2017
</metadata>
<g transform="translate(0.000000,486.000000) scale(0.100000,-0.100000)"
fill="#000000" stroke="none">
<path d="M3327 2824 c-3 -4 0 -19 8 -35 8 -15 15 -30 15 -34 0 -3 -20 -5 -45
-5 -33 0 -45 -4 -45 -15 0 -12 16 -15 85 -15 l85 0 0 -36 0 -36 -70 4 -70 4
-11 -41 c-5 -22 -14 -53 -19 -68 -7 -22 -6 -29 7 -34 9 -4 19 -1 21 5 2 8 27
12 65 12 l60 0 -23 -25 c-13 -14 -55 -41 -92 -59 -57 -29 -65 -36 -52 -47 12
-10 24 -8 62 10 26 13 63 36 83 52 20 16 39 26 43 22 3 -3 6 -30 6 -60 0 -40
4 -53 15 -53 12 0 15 16 15 80 l0 80 75 0 75 0 0 -31 c0 -49 -16 -69 -56 -69
-51 0 -39 -24 14 -28 51 -4 68 18 78 101 l7 57 -97 0 -96 0 0 30 0 30 85 0 85
0 0 65 0 65 -40 0 c-44 0 -50 11 -24 48 14 20 14 23 -2 29 -10 4 -19 2 -21 -3
-2 -5 -12 -24 -23 -41 -19 -31 -23 -33 -77 -33 -56 0 -59 1 -78 37 -20 37 -36
49 -48 37z m273 -139 l0 -35 -65 0 -65 0 0 35 0 35 65 0 65 0 0 -35z m-168
-82 c9 -36 -2 -43 -69 -43 -55 0 -64 2 -59 16 3 9 6 22 6 30 0 10 15 14 59 14
47 0 60 -3 63 -17z"/>
<path d="M3897 2824 c-3 -4 0 -19 8 -35 8 -15 15 -30 15 -34 0 -3 -20 -5 -45
-5 -33 0 -45 -4 -45 -15 0 -12 17 -15 91 -15 l90 0 -3 -32 -3 -33 -72 1 -71 2
-17 -70 c-19 -74 -15 -89 15 -70 11 7 43 12 72 12 l51 0 -24 -26 c-13 -14 -52
-40 -86 -58 -46 -23 -60 -35 -54 -45 13 -20 64 0 129 49 29 22 55 40 57 40 3
0 5 -27 5 -60 0 -46 3 -60 15 -60 11 0 15 18 17 78 l3 77 75 0 75 0 -3 -35
c-5 -50 -20 -63 -60 -56 -28 4 -33 2 -28 -10 3 -9 6 -18 6 -20 0 -10 78 -3 93
9 16 11 40 131 29 142 -3 3 -47 5 -99 5 l-93 0 0 30 0 30 85 0 85 0 0 65 0 65
-40 0 c-43 0 -48 6 -25 36 20 26 19 44 -2 44 -10 0 -27 -16 -38 -38 -19 -35
-23 -37 -77 -40 l-56 -3 -23 41 c-21 38 -37 48 -52 34z m273 -139 l0 -36 -62
3 c-63 3 -63 3 -66 36 l-3 32 65 0 66 0 0 -35z m-160 -95 l0 -30 -65 0 c-67 0
-74 5 -59 44 5 12 21 16 65 16 59 0 59 0 59 -30z"/>
<path d="M2896 2774 c-3 -26 -6 -68 -6 -95 0 -80 2 -79 -121 -79 -90 0 -109
-3 -109 -15 0 -12 18 -15 105 -15 58 0 105 -2 105 -5 0 -4 -7 -19 -14 -34 -22
-42 -80 -88 -136 -108 -53 -19 -62 -40 -15 -35 69 8 163 82 186 147 l13 35 98
0 c80 0 98 3 98 15 0 12 -17 15 -91 15 l-91 0 7 110 c6 93 5 110 -8 110 -9 0
-16 -15 -21 -46z"/>
<path d="M2737 2793 c-9 -8 93 -64 104 -57 18 11 8 22 -36 43 -48 23 -58 25
-68 14z"/>
<path d="M1447 2734 c-12 -12 -8 -42 6 -47 21 -8 39 8 35 29 -3 19 -29 30 -41
18z"/>
<path d="M2691 2701 c7 -21 98 -66 110 -54 7 7 0 17 -23 31 -43 26 -92 39 -87
23z"/>
<path d="M994 2679 c-10 -17 13 -36 27 -22 12 12 4 33 -11 33 -5 0 -12 -5 -16
-11z"/>
<path d="M1135 2672 c-93 -30 -185 -149 -185 -239 0 -13 -4 -23 -9 -23 -18 0
-99 -81 -105 -106 -14 -55 39 -97 138 -109 38 -5 76 -18 103 -36 25 -15 67
-33 95 -39 133 -32 285 48 334 176 9 25 41 68 75 102 53 53 59 63 59 100 0 54
-29 74 -114 80 -53 4 -66 9 -104 43 -76 67 -182 86 -287 51z m96 -20 c-13 -9
-38 -22 -54 -28 -17 -6 -33 -16 -35 -22 -6 -19 79 16 110 44 25 24 29 25 65
14 21 -7 42 -16 46 -20 12 -10 -36 -63 -77 -85 -32 -18 -47 -35 -29 -35 19 0
97 56 112 81 l18 30 32 -30 c32 -30 40 -68 19 -89 -6 -6 -9 -15 -5 -18 4 -4
15 4 26 17 l19 24 13 -44 c16 -54 10 -63 -71 -113 -106 -64 -315 -119 -396
-104 -28 6 -35 13 -45 46 -15 48 -11 54 26 40 16 -6 32 -7 37 -2 5 5 -9 14
-32 21 -36 11 -40 15 -40 44 0 18 3 42 6 54 5 18 10 20 31 12 31 -11 66 -12
59 0 -3 4 -19 11 -36 14 -37 8 -38 26 -5 66 22 25 31 29 60 24 22 -3 35 -2 35
5 0 6 -12 12 -27 14 -26 4 -24 6 27 31 33 16 71 27 95 26 l40 0 -24 -17z m367
-108 c16 -11 22 -25 22 -50 0 -54 -76 -122 -203 -184 -143 -69 -245 -94 -382
-95 -118 0 -167 15 -180 54 -9 28 18 75 57 99 39 25 45 22 23 -12 -82 -124
205 -135 450 -17 151 74 210 163 130 197 -19 8 -35 16 -35 19 0 12 98 3 118
-11z m-72 -38 c3 -8 4 -23 2 -33 -3 -13 -7 -9 -15 15 -12 31 1 48 13 18z
m-563 -196 c3 -14 1 -20 -6 -17 -7 2 -14 14 -15 26 -4 28 13 20 21 -9z m527
-1 c0 -7 -16 -27 -36 -45 -19 -19 -33 -38 -29 -43 8 -14 -53 -58 -104 -76 -42
-14 -141 -21 -128 -9 3 4 28 10 54 15 62 12 154 49 148 60 -3 4 -22 1 -43 -8
-97 -41 -206 -54 -257 -31 -31 14 -16 28 30 28 50 0 209 47 282 83 79 40 83
41 83 26z"/>
<path d="M1135 2559 c-21 -5 -45 -7 -52 -5 -7 3 -15 1 -18 -3 -6 -10 37 -23
57 -17 7 2 25 7 41 10 15 4 27 11 27 16 0 11 -1 11 -55 -1z"/>
<path d="M1085 2490 c-3 -6 5 -10 19 -10 14 0 28 5 31 10 3 6 -5 10 -19 10
-14 0 -28 -4 -31 -10z"/>
<path d="M1295 2488 c-11 -6 -44 -19 -74 -29 -64 -19 -85 -44 -24 -27 57 15
133 49 133 59 0 12 -11 11 -35 -3z"/>
<path d="M1329 2439 c-46 -24 -109 -47 -158 -57 -44 -9 -81 -20 -81 -24 0 -36
297 66 325 112 10 16 -6 10 -86 -31z"/>
<path d="M1411 2422 c-56 -38 -55 -58 2 -23 36 22 76 61 61 60 -5 0 -33 -17
-63 -37z"/>
<path d="M1030 2310 c0 -5 18 -10 40 -10 22 0 40 5 40 10 0 6 -18 10 -40 10
-22 0 -40 -4 -40 -10z"/>
<path d="M1380 2259 c-8 -5 -33 -17 -55 -26 -54 -22 -27 -29 30 -8 46 18 80
46 54 44 -8 0 -21 -4 -29 -10z"/>
<path d="M872 2660 c-12 -12 -22 -29 -22 -40 0 -18 43 -60 62 -60 13 0 58 47
58 60 0 16 -46 60 -63 60 -7 0 -23 -9 -35 -20z m62 -16 c9 -8 16 -19 16 -24 0
-11 -29 -40 -40 -40 -13 0 -40 30 -40 44 0 16 20 36 36 36 7 0 20 -7 28 -16z"/>
<path d="M1502 2644 c4 -21 22 -23 26 -1 2 10 -3 17 -13 17 -10 0 -15 -6 -13
-16z"/>
<path d="M2906 2504 c-3 -8 -2 -14 3 -14 5 0 43 -23 85 -50 69 -45 96 -54 96
-32 0 10 -119 88 -153 101 -19 8 -27 7 -31 -5z"/>
<path d="M860 2446 c0 -8 4 -17 9 -20 11 -7 33 18 24 27 -12 12 -33 7 -33 -7z"/>
<path d="M1568 2329 c-35 -20 -15 -69 29 -69 31 0 44 47 18 67 -22 15 -25 16
-47 2z m40 -32 c2 -12 -3 -17 -17 -17 -12 0 -21 6 -21 13 0 31 32 34 38 4z"/>
<path d="M1526 2233 c-12 -12 -6 -33 9 -33 8 0 15 6 15 14 0 17 -14 28 -24 19z"/>
<path d="M992 2114 c4 -21 22 -23 26 -1 2 10 -3 17 -13 17 -10 0 -15 -6 -13
-16z"/>
</g>
</svg>
